<svg width="100%" height="100%" viewBox="0 0 1000 1000" version="1.1" xmlns="http://www.w3.org/2000/svg" desc="Created with imagetracer.js version 1.2.6">
    <path fill="currentColor" stroke="currentColor" stroke-width="1" opacity="1"
        d="M 481.5 104 L 516.5 104 L 517.5 105 L 536.5 105 L 537.5 106 L 557 107 L 557.5 109 L 564.5 109 L 565.5 110 L 585 112 Q 583.6 115.7 589.5 114 L 605 117 Q 603.7 120.3 608.5 119 L 621 122 Q 619.7 125.3 624.5 124 L 636 127 Q 634.7 130.3 639.5 129 L 642.5 131 L 649 132 Q 647.8 135 651.5 134 L 657.5 137 L 661 137 Q 659.8 140 663.5 139 L 671 142 Q 669.8 145 673.5 144 L 681 147 Q 679.8 150 683.5 149 L 691 152 Q 689.8 155 693.5 154 Q 695.4 157.6 700 157 Q 698.9 159.7 701.5 159 L 707 162.5 Q 706.2 165.1 709.5 164 L 716 167 L 717.5 170 L 724 172 L 725.5 175 L 731 177 L 732.5 180 L 737 182.5 Q 736.3 184.8 738.5 184 L 744 187 L 745.5 190 L 751 192 L 752.5 195 L 756 197.5 Q 755.2 200.1 758.5 199 L 762 204 L 767 207.5 Q 766.3 209.8 768.5 209 Q 769.7 212.8 774 212 L 777.5 217 Q 779.8 216.3 779 218.5 L 784 222 L 787 229 L 792 232.5 Q 791.3 234.8 793.5 234 L 797 239 Q 799.7 237.9 799 240.5 L 802.5 245 L 806 247.5 L 807.5 251 L 810 252.5 Q 809.5 256.5 812.5 257 Q 814.8 256.3 814 258.5 L 817 264 Q 819.7 262.9 819 265.5 L 822.5 271 L 825 272.5 L 827 279 L 830 280.5 L 832 286 Q 835 284.8 834 288.5 L 837 294 Q 839.7 292.9 839 295.5 L 842 302 Q 845 300.8 844 304.5 L 847 311 Q 850 309.8 849 313.5 L 852 321 Q 855 319.8 854 323.5 L 857 331 Q 860 329.8 859 333.5 L 862 342 Q 865 340.8 864 344.5 L 866 347.5 L 867 354 Q 870 352.8 869 356.5 L 872 367 Q 875.3 365.7 874 370.5 L 877 382 Q 880.3 380.7 879 385.5 L 882 400 Q 885.7 398.6 884 404.5 L 887 415.5 L 887 421 Q 891 419.6 889 426.5 L 892 442.5 L 892 451 L 894 451.5 L 894 461.5 L 895 462.5 L 895 481.5 L 896 482.5 L 896 516.5 L 895 517.5 L 895 536.5 L 894 537.5 L 894 549 L 892 549.5 L 892 556.5 L 891 557.5 L 891 565.5 L 889 572.5 L 889 579 Q 885 577.6 887 584.5 L 884 600 Q 880.3 598.6 882 604.5 L 879 617 Q 875.3 615.6 877 621.5 L 874 632 Q 870.7 630.7 872 635.5 L 869 646 Q 866 644.8 867 648.5 L 864 657 Q 860.7 655.7 862 660.5 L 859 669 Q 856.3 667.9 857 670.5 L 854 679 Q 851.3 677.9 852 680.5 L 849 689 Q 846.3 687.9 847 690.5 L 844 697 Q 841 695.8 842 699.5 L 839 706 L 836 707.5 L 834 714 Q 831.3 712.9 832 715.5 L 828.5 721 Q 825.9 720.2 827 723.5 L 824 729 Q 821.3 727.9 822 730.5 L 819 736 L 816 737.5 L 813.5 742 Q 811.3 741.3 812 743.5 L 809 749 L 806 750.5 L 803.5 755 L 800 757.5 L 799 761 L 796 762.5 L 793.5 766 L 791 767.5 L 789 772 Q 786.3 770.9 787 773.5 L 782 777 L 778.5 782 Q 776.3 781.3 777 783.5 L 772 787 Q 773.1 789.7 770.5 789 L 766 792.5 L 763.5 796 L 761 797.5 L 758.5 801 L 755 802.5 L 753.5 805 L 749 807 Q 750.1 809.7 747.5 809 Q 746.2 812.8 742 812 L 739.5 816 L 736 817.5 L 734.5 820 L 729 822 Q 730.1 824.7 727.5 824 L 722 827 Q 723.1 829.7 720.5 829 L 715 832.5 Q 715.8 835.1 712.5 834 Q 710.6 837.6 706 837 Q 707.1 839.7 704.5 839 L 697 842 L 695.5 845 L 689 847 Q 690.3 850 686.5 849 L 679 852 Q 680.3 855 676.5 854 L 669 857 Q 670.3 860 666.5 859 L 659 862 Q 660.3 865.3 655.5 864 L 646 867 Q 647.3 870.3 642.5 869 L 639.5 871 L 632 872 Q 633.1 874.7 630.5 874 L 617 877 Q 618.3 880 614.5 879 L 609.5 881 L 600 882 Q 601.4 885.7 595.5 884 L 584.5 887 L 579 887 Q 580.1 890.5 572.5 889 L 565.5 891 L 549 892 L 548.5 894 L 537.5 894 L 536.5 895 L 517.5 895 L 516.5 896 L 482.5 896 L 481.5 895 L 462.5 895 L 461.5 894 L 451 894 L 450.5 892 L 442.5 892 L 441.5 891 L 421 889 Q 422.4 885 415.5 887 L 400 884 Q 401.4 880.3 395.5 882 L 382 879 Q 383.3 876 379.5 877 L 367 874 Q 368.3 871 364.5 872 L 354 869 Q 355.3 866 351.5 867 L 342 864 Q 343.1 861.3 340.5 862 L 331 859 Q 332.1 856.3 329.5 857 L 321 854 Q 322.1 851.3 319.5 852 L 311 849 Q 312.1 846.3 309.5 847 L 302 844 Q 303.1 841.3 300.5 842 L 294 839 Q 295.3 836 291.5 837 L 285 834 L 283.5 831 L 277 829 L 275.5 826 L 270 824 L 268.5 821 L 264 818.5 Q 264.8 816.3 262.5 817 L 257 814 Q 258.1 811.3 255.5 812 L 251 808.5 L 249.5 806 Q 245.5 806.5 245 803.5 L 243.5 801 L 240 798.5 Q 240.8 795.9 237.5 797 L 234 792 L 229.5 789 L 227 789 L 223.5 784 Q 221.3 784.8 222 782.5 L 217 779 L 213.5 774 Q 211.3 774.8 212 772.5 L 209 767 L 204 763.5 Q 204.8 761.3 202.5 762 L 198.5 756 L 195 753.5 L 194 750 L 191 748.5 L 188.5 745 Q 185.9 745.8 187 742.5 Q 183.2 741.3 184 737 L 180 734.5 L 178.5 731 L 176 729.5 L 174 724 Q 171.3 725.1 172 722.5 Q 168.4 720.6 169 716 L 166 714.5 L 163.5 709 Q 160.9 709.8 162 706.5 L 159 700 Q 156 701.3 157 697.5 Q 153.4 695.6 154 691 Q 151.3 692.1 152 689.5 L 149 681 Q 146.3 682.1 147 679.5 L 144 671 Q 141.3 672.1 142 669.5 L 139 663.5 L 139 660 Q 136 661.3 137 657.5 L 134 649 Q 131 650.3 132 646.5 L 129 636 Q 125.7 637.3 127 632.5 Q 123.2 628.3 124 621 Q 120.7 622.3 122 617.5 Q 118.6 612.7 119 605 Q 115.3 606.4 117 600.5 L 114 585 Q 110 586.4 112 579.5 L 111 578.5 L 109 559 L 107 558.5 L 107 549.5 L 106 548.5 L 105 517.5 L 104 516.5 L 104 482.5 L 105 481.5 L 105 462.5 L 106 461.5 L 107 442 L 109 441.5 L 109 434.5 L 110 433.5 L 112 415 Q 115.7 416.4 114 410.5 L 117 395 Q 120.7 396.4 119 390.5 L 122 379 Q 125.3 380.3 124 375.5 L 127 364 Q 130.3 365.3 129 360.5 L 132 351 Q 135.3 352.3 134 347.5 L 137 339 Q 140 340.3 139 336.5 L 142 329 Q 145 330.3 144 326.5 L 147 319 Q 150 320.3 149 316.5 L 152 309 Q 155 310.3 154 306.5 L 157 300 Q 160 301.3 159 297.5 Q 162.6 295.6 162 291 L 165 289.5 L 167.5 284 Q 170.1 284.8 169 281.5 L 172.5 276 L 175 274.5 L 177 269 Q 179.7 270.1 179 267.5 L 182 262 Q 184.7 263.1 184 260.5 L 187 255 L 190 253.5 L 192.5 249 Q 194.8 249.8 194 247.5 L 199 244 L 199 241.5 L 202 237 L 207 233.5 Q 206.3 231.3 208.5 232 Q 212.8 230.7 212 226 L 216 223.5 L 217.5 221 L 221 218.5 L 222.5 216 L 226 213.5 L 227.5 211 L 232 208.5 Q 231.3 206.3 233.5 207 L 237 202 L 244 199 L 247.5 194 L 250.5 192 L 256 189 L 257.5 186 L 262 183.5 Q 261.3 181.3 263.5 182 L 269 179 Q 267.9 176.3 270.5 177 L 276 173.5 L 277.5 171 L 284 169 Q 282.9 166.3 285.5 167 L 291 163.5 Q 290.2 160.9 293.5 162 L 297.5 159 L 300 159 Q 298.9 156.3 301.5 157 L 309 154 Q 307.9 151.3 310.5 152 L 319 149 Q 317.9 146.3 320.5 147 L 329 144 Q 327.9 141.3 330.5 142 L 339 139 Q 337.8 136 341.5 137 L 347.5 134 L 351 134 Q 349.8 131 353.5 132 L 364 129 Q 362.8 126 366.5 127 L 377 124 Q 375.6 120.3 381.5 122 L 395 119 Q 393.6 115.3 399.5 117 L 415 114 Q 413.6 110 420.5 112 L 427.5 110 L 442 109 L 442.5 107 L 450.5 107 L 451.5 106 L 480.5 105 L 481.5 104 Z M 490 156 L 489 157 L 471 157 L 470 159 L 450 160 L 441 162 Q 433 161 434 164 L 423 165 L 417 167 Q 411 165 412 169 L 408 169 L 399 172 Q 394 171 395 174 Q 388 174 384 177 Q 379 176 380 179 L 371 182 Q 366 181 367 184 L 359 187 Q 355 186 356 189 L 349 192 Q 345 191 346 194 L 339 197 Q 335 196 336 199 L 330 202 Q 326 201 327 204 L 322 206 L 320 209 Q 315 208 314 212 Q 310 211 311 214 L 306 217 Q 303 216 304 219 L 299 222 Q 296 221 297 224 L 293 226 L 291 229 L 285 233 Q 286 235 283 234 L 279 239 L 272 242 L 269 247 Q 266 246 267 249 L 263 251 L 261 254 L 258 256 L 256 259 L 253 261 L 249 266 Q 250 268 247 267 L 244 272 Q 241 271 242 274 L 237 277 Q 238 281 234 283 Q 235 285 232 284 L 230 289 L 227 290 L 224 296 Q 225 298 222 297 L 219 303 Q 220 305 217 304 L 215 310 L 212 311 Q 213 316 209 318 Q 210 320 207 319 Q 207 324 204 326 Q 205 328 202 327 L 199 335 Q 200 337 197 336 Q 198 341 194 343 Q 195 347 192 346 L 189 355 Q 190 357 187 356 L 184 366 Q 185 368 182 367 L 179 378 Q 180 382 177 381 L 174 392 Q 175 396 172 395 L 171 404 L 169 408 Q 171 413 167 412 L 164 428 L 164 435 L 162 435 L 161 449 L 160 450 L 160 459 L 159 460 L 159 470 L 157 470 L 157 489 L 156 490 L 156 511 L 157 512 L 157 530 L 159 530 L 159 542 L 160 543 L 161 559 L 162 560 Q 161 567 164 566 L 165 577 L 167 583 Q 165 588 169 587 L 172 602 Q 171 606 174 605 L 177 617 Q 176 620 179 619 L 182 630 Q 181 633 184 632 L 187 642 Q 186 645 189 644 L 192 652 Q 190 656 194 655 L 197 662 Q 196 665 199 664 Q 199 669 202 671 Q 201 673 204 672 L 207 680 Q 206 682 209 681 L 212 687 Q 211 690 214 689 L 216 695 L 219 696 L 221 701 L 224 702 Q 223 706 227 708 Q 226 711 229 710 L 232 715 Q 231 717 234 716 L 235 719 L 239 721 Q 238 726 243 727 Q 245 726 244 729 L 249 732 L 249 735 L 252 739 L 257 743 Q 256 745 259 744 L 262 749 L 269 752 L 273 757 Q 275 756 274 759 L 279 761 L 280 764 L 285 767 Q 287 766 286 769 L 291 771 L 292 774 L 298 777 Q 300 776 299 779 L 304 781 L 305 784 L 312 787 Q 315 786 314 789 L 320 791 L 321 794 L 328 797 Q 331 796 330 799 L 337 802 Q 340 801 339 804 L 346 807 Q 350 806 349 809 L 357 812 Q 360 811 359 814 L 368 817 Q 372 816 371 819 L 382 822 Q 385 821 384 824 L 396 827 Q 400 826 399 829 L 404 829 L 413 832 Q 418 830 417 834 L 429 835 L 435 837 Q 442 836 441 839 L 457 840 L 458 841 L 470 841 L 471 842 L 489 842 L 489 844 L 511 844 L 511 842 L 530 842 L 531 841 L 551 840 L 552 839 L 559 839 L 559 837 L 572 836 L 578 834 Q 583 836 582 832 L 592 831 L 597 829 Q 602 831 601 827 L 613 824 Q 616 825 615 822 L 627 819 Q 630 820 629 817 L 638 814 Q 642 815 641 812 L 650 809 Q 652 810 651 807 L 660 804 Q 662 805 661 802 Q 666 803 668 799 Q 671 800 670 797 L 677 794 Q 680 795 679 792 L 685 790 L 686 787 L 689 787 L 693 784 Q 695 785 694 782 L 700 779 Q 702 780 701 778 L 705 776 L 707 772 L 713 769 Q 715 770 714 767 L 719 765 L 720 762 L 724 761 L 726 758 L 729 756 L 731 753 L 737 749 Q 736 746 739 747 L 742 742 L 747 739 Q 746 736 749 737 Q 752 736 751 733 L 754 731 L 756 728 L 759 726 L 760 723 L 764 720 L 766 716 L 769 714 L 772 709 Q 771 706 774 707 L 776 703 L 779 701 L 781 696 L 784 694 L 787 689 Q 786 685 789 686 L 791 681 L 794 679 L 797 672 Q 796 669 799 670 L 799 668 L 802 664 Q 801 660 804 661 L 807 654 Q 806 650 809 651 L 812 644 Q 811 640 814 641 L 814 638 L 817 632 Q 816 628 819 629 L 820 623 L 822 620 Q 821 615 824 616 L 827 605 Q 826 600 829 601 L 832 587 Q 830 581 834 582 L 837 566 Q 836 558 839 559 L 840 542 L 841 541 L 841 531 L 842 530 L 842 512 L 844 511 L 844 490 L 842 489 L 842 471 L 841 470 L 840 450 L 839 449 L 839 442 L 837 441 L 836 428 L 834 422 Q 836 415 832 416 L 829 402 Q 830 399 827 400 L 827 396 L 824 387 Q 825 383 822 384 L 819 374 Q 820 370 817 371 L 814 361 Q 815 358 812 359 L 809 351 Q 810 348 807 349 L 804 341 Q 805 338 802 339 L 799 332 Q 800 329 797 330 L 797 328 L 794 324 Q 795 320 793 321 L 790 316 L 787 314 Q 788 310 784 309 Q 785 305 783 306 L 779 301 Q 780 298 777 299 L 774 294 Q 775 291 773 292 L 770 288 L 767 286 L 766 283 L 763 280 L 759 274 Q 756 275 757 273 L 752 269 Q 753 265 749 264 Q 750 261 748 262 L 744 257 L 739 254 Q 740 251 738 252 L 734 247 L 732 247 L 727 244 L 724 239 Q 721 240 722 237 L 718 235 L 716 232 L 711 229 Q 708 230 709 227 L 705 224 Q 701 225 702 223 L 698 220 L 696 217 L 692 216 L 689 212 L 682 209 Q 679 210 680 208 L 674 204 Q 671 205 672 202 Q 668 202 666 199 Q 663 200 664 197 L 656 194 Q 653 195 654 192 L 646 189 Q 643 190 644 187 L 635 184 Q 631 185 632 182 L 622 179 Q 618 180 619 177 L 609 174 Q 604 175 605 172 L 601 172 L 592 169 Q 586 171 587 167 L 572 164 Q 564 166 565 162 L 552 161 L 551 160 L 542 160 L 541 159 L 531 159 L 530 157 L 490 156 Z " />
    <path fill="currentColor" stroke="currentColor" stroke-width="1" opacity="1"
        d="M 469 192 L 478.5 192 L 479 192.5 L 479 241 L 476.5 242 L 466 242 L 465.5 244 L 457.5 244 L 439 247 Q 440.4 250.7 434.5 249 L 421 252 Q 422.4 255.7 416.5 254 L 413.5 256 L 406 257 Q 407.1 259.7 404.5 259 L 394 262 Q 395.3 265 391.5 264 L 384 267 Q 385.3 270 381.5 269 L 374 272 Q 375.1 274.7 372.5 274 L 366 277.5 Q 366.8 279.8 364.5 279 L 359 282.5 Q 359.8 285.1 356.5 284 L 351 287.5 Q 351.8 289.8 349.5 289 L 344 292.5 Q 344.8 294.8 342.5 294 L 337 297 L 333.5 302 Q 330.2 300.9 331 303.5 L 326 307.5 L 323.5 311 L 320 312.5 L 318.5 315 L 315 317.5 L 313.5 320 Q 311.3 319.3 312 321.5 L 308.5 326 L 306 327.5 L 303.5 331 L 301 332.5 Q 301.5 336.5 298.5 337 Q 296.3 336.3 297 338.5 L 294 344 Q 291.3 342.9 292 345.5 L 289 351 L 286 352.5 Q 286.5 356.5 283.5 357 Q 280.9 356.2 282 359.5 Q 278.8 361.5 279 366 L 276 367.5 L 274 375 L 271 376.5 L 269 384 Q 266.3 382.9 267 385.5 L 264 394 Q 261.3 392.9 262 395.5 L 259 406 Q 255.7 404.7 257 409.5 L 254 420 Q 250.3 418.6 252 424.5 L 249 439 L 247 439.5 L 414 440 L 414 480.5 L 413.5 481 L 192 481 L 192 469.5 L 194 468.5 L 194 459.5 L 195 458.5 L 195 450.5 L 196 449.5 L 197 436 Q 200.7 437.4 199 431.5 L 202 416 Q 205.3 417.3 204 412.5 Q 207.2 408 207 401 Q 210.3 402.3 209 397.5 L 212 387 Q 214.7 388.1 214 385.5 L 217 375 Q 220 376.3 219 372.5 L 222 365 Q 225 366.3 224 362.5 L 227 355 Q 230 356.3 229 352.5 Q 232.6 350.6 232 346 Q 234.7 347.1 234 344.5 L 237 337 Q 239.7 338.1 239 335.5 Q 242.2 333.5 242 329 Q 244.7 330.1 244 327.5 Q 247.6 325.6 247 321 L 251 318.5 L 252.5 315 L 255 313.5 Q 254.5 309.5 257.5 309 Q 259.8 309.8 259 307.5 L 262 302 L 266 299.5 L 267.5 296 L 271 293.5 L 272.5 291 L 276 288.5 L 277.5 286 Q 279.8 286.8 279 284.5 L 282.5 280 L 285 278.5 Q 284.3 276.3 286.5 277 L 291 273.5 L 292.5 271 L 296 268.5 L 297.5 266 L 302 263.5 Q 301.3 261.3 303.5 262 Q 304.8 258.2 309 259 L 311.5 255 L 315 253.5 L 316.5 251 Q 320.5 251.5 321 248.5 Q 320.2 245.9 323.5 247 L 329 244 Q 327.9 241.3 330.5 242 L 337 239 Q 335.8 236 339.5 237 Q 341.5 233.8 346 234 L 347.5 231 L 355 229 Q 353.9 226.3 356.5 227 L 365 224 Q 363.9 221.3 366.5 222 L 372.5 219 L 376 219 Q 374.8 216 378.5 217 L 387 214 Q 385.7 210.7 390.5 212 L 401 209 Q 399.7 205.7 404.5 207 L 412.5 204 L 417 204 Q 415.7 200.7 420.5 202 L 436 199 Q 434.6 195 441.5 197 L 457.5 194 L 469 194 L 469 192 Z " />
    <path fill="currentColor" stroke="currentColor" stroke-width="1" opacity="1"
        d="M 521 192 L 530.5 192 L 531.5 194 L 541.5 194 L 542.5 195 L 564 197 Q 562.6 200.7 568.5 199 L 582 202 Q 580.6 205.7 586.5 204 L 599 207 Q 597.8 210 601.5 209 L 612 212 Q 610.7 215.3 615.5 214 L 624 217 Q 622.8 220 626.5 219 L 635 222 Q 633.9 224.7 636.5 224 L 645 227 Q 643.9 229.7 646.5 229 L 654 232 Q 652.9 234.7 655.5 234 L 662 237 Q 660.8 240 664.5 239 Q 666.5 242.2 671 242 L 672.5 245 L 679 247 L 681.5 251 L 685 252.5 L 686.5 255 Q 690.5 254.5 691 257.5 Q 690.2 260.1 693.5 259 L 697 264 L 704 267 L 707.5 272 Q 709.8 271.3 709 273.5 Q 710.3 277.8 715 277 L 717.5 281 L 720 282.5 L 722.5 287 Q 724.8 286.3 724 288.5 L 729 292 L 732.5 297 Q 735.1 296.2 734 299.5 L 737 304 L 740 305.5 L 742.5 310 L 745 311.5 Q 744.5 315.5 747.5 316 Q 750.1 315.2 749 318.5 Q 752.7 319.8 752 324 L 755 325.5 L 757 331 Q 760 329.8 759 333.5 L 762 339 Q 764.7 337.9 764 340.5 L 767 349 L 770 350.5 L 772 357 Q 775 355.8 774 359.5 L 777 367 Q 780 365.8 779 369.5 Q 782.7 372.9 782 379 Q 784.7 377.9 784 380.5 L 787 390 Q 790.3 388.7 789 393.5 L 792 405 Q 795.3 403.7 794 408.5 Q 797.4 413.3 797 421 Q 800.3 419.7 799 424.5 L 802 442 L 804 442.5 L 804 449.5 L 805 450.5 L 806 468.5 L 807 469.5 L 807 492 L 809 492.5 L 809 509 L 807 509.5 L 807 530.5 L 806 531.5 L 806 541.5 L 805 542.5 L 804 557 Q 800.5 555.9 802 563.5 L 799 579 Q 795.3 577.6 797 583.5 L 794 595 Q 790.7 593.7 792 598.5 L 789 609 Q 786 607.8 787 611.5 L 784 621 Q 780.7 619.7 782 624.5 L 779 632 Q 776 630.8 777 634.5 L 774 642 Q 771 640.8 772 644.5 L 769 652 Q 766 650.8 767 654.5 L 763.5 660 Q 761.3 659.3 762 661.5 L 759 669 L 756 670.5 L 753.5 676 Q 750.9 675.2 752 678.5 Q 748.2 679.7 749 684 L 745 686.5 L 743.5 690 L 740 692.5 L 738.5 696 L 736 697.5 L 734 702 Q 731.3 700.9 732 703.5 L 727 707 L 723.5 712 Q 721.3 711.3 722 713.5 L 717 717 L 713.5 722 Q 711.3 721.3 712 723.5 L 707 727 L 703.5 732 L 700.5 734 L 696 737.5 L 694.5 740 Q 690.5 739.5 690 742.5 L 688.5 745 Q 684.5 744.5 684 747.5 Q 684.8 750.1 681.5 749 Q 680.3 752.7 676 752 L 674.5 755 L 669 757.5 Q 669.8 760.1 666.5 759 L 660 762 L 658.5 765 L 652 767 Q 653.1 769.7 650.5 769 L 642 772 Q 643.1 774.7 640.5 774 L 632 777 Q 633.1 779.7 630.5 779 L 624.5 782 L 621 782 Q 622.1 784.7 619.5 784 L 609 787 Q 610.3 790 606.5 789 L 595 792 Q 596.3 795.3 591.5 794 L 583.5 797 L 579 797 Q 580.4 800.7 574.5 799 L 563.5 802 L 557 802 Q 558.1 805.5 550.5 804 L 541.5 806 L 521 807 L 521 759.5 L 522 757 L 533.5 757 L 534.5 756 L 555 754 Q 553.6 750.3 559.5 752 L 575 749 Q 573.7 745.7 578.5 747 L 590 744 Q 588.7 740.7 593.5 742 L 602 739 Q 600.7 735.7 605.5 737 L 614 734 Q 612.9 731.3 615.5 732 L 624 729 Q 622.9 726.3 625.5 727 L 632 724 Q 630.9 721.3 633.5 722 Q 635.4 718.4 640 719 Q 638.9 716.3 641.5 717 L 647 714 Q 645.9 711.3 648.5 712 L 654 709 Q 652.9 706.3 655.5 707 L 660 703.5 Q 659.3 701.3 661.5 702 L 667 699 Q 665.9 696.3 668.5 697 L 672 692 L 677 688.5 Q 676.2 685.9 679.5 687 L 684 684 L 687 679.5 L 687 677 L 692 673.5 Q 691.3 671.3 693.5 672 L 697 667 Q 699.7 668.1 699 665.5 L 702 660 L 705 658.5 L 707 654 Q 709.7 655.1 709 652.5 L 712 647 Q 714.7 648.1 714 645.5 L 717 640 Q 720 641.3 719 637.5 L 722 632 Q 724.7 633.1 724 630.5 L 727 624 Q 730 625.3 729 621.5 L 732 614 Q 735 615.3 734 611.5 Q 737.7 608.1 737 602 Q 739.7 603.1 739 600.5 L 742 590 Q 745.3 591.3 744 586.5 L 746 583.5 L 747 575 Q 750.7 576.4 749 570.5 L 751 565.5 L 752 555 Q 756 556.4 754 549.5 L 755 548.5 L 757 530 L 625 530 L 625 481 L 758.5 481 L 759 477 L 757 476.5 L 757 466.5 L 756 465.5 L 756 457.5 L 754 445 Q 750 446.4 752 439.5 L 749 425 Q 745.3 426.4 747 420.5 L 744 410 Q 740.7 411.3 742 406.5 L 739 396 Q 736.3 397.1 737 394.5 L 734 386 Q 731.3 387.1 732 384.5 L 729 376 L 726 374.5 L 724 367 L 721 365.5 L 718.5 360 Q 715.9 360.8 717 357.5 Q 713.3 356.3 714 352 L 711 350.5 L 708.5 346 Q 706.3 346.8 707 344.5 L 704 339 Q 701.3 340.1 702 337.5 Q 698.3 336.3 699 332 L 694 328.5 Q 694.8 326.3 692.5 327 L 689 322 Q 686.3 323.1 687 320.5 L 683.5 316 L 680 313.5 L 678.5 311 Q 674.5 311.5 674 308.5 Q 674.8 306.3 672.5 307 L 669 302 L 666.5 302 L 662 299 L 660.5 296 L 656 293.5 L 654.5 291 L 649 289 Q 650.1 286.3 647.5 287 Q 645.6 283.4 641 284 L 639.5 281 L 634 279 Q 635.1 276.3 632.5 277 L 626 273.5 Q 626.8 271.3 624.5 272 L 616 269 Q 617.1 266.3 614.5 267 L 606 264 Q 607.3 260.7 602.5 262 L 594 259 Q 595.3 255.7 590.5 257 L 583.5 254 L 579 254 Q 580.3 250.7 575.5 252 L 561 249 Q 562.4 245 555.5 247 L 548.5 245 L 534 244 L 533.5 242 L 522.5 242 L 521 240.5 L 521 192 Z " />
    <path fill="currentColor" stroke="currentColor" stroke-width="1" opacity="1"
        d="M 451 415 L 457 417 Q 455.8 420 459.5 419 Q 461.5 422.2 466 422 L 467.5 425 L 474 427 Q 472.9 429.7 475.5 429 L 482 432.5 Q 481.2 435.1 484.5 434 L 491 437 Q 489.8 440 493.5 439 Q 495.4 442.6 500 442 L 501.5 445 L 509 447 L 510.5 450 L 517 452 Q 515.9 454.7 518.5 454 L 526 457 L 527.5 460 L 534 462 Q 532.9 464.7 535.5 464 L 542 467 Q 540.8 470 544.5 469 L 551 472 Q 549.8 475 553.5 474 Q 555.4 477.6 560 477 Q 558.9 479.7 561.5 479 L 569 482 L 570.5 485 L 577 487 Q 575.9 489.7 578.5 489 L 585 492.5 Q 584.3 494.8 586.5 494 L 594 497 Q 592.9 499.7 595.5 499 L 599 500 Q 601.1 505.2 596.5 504 L 590 507.5 Q 590.8 510.1 587.5 509 L 581 512.5 Q 581.8 514.8 579.5 514 L 572 517 Q 573.1 519.7 570.5 519 L 564 522 Q 565.1 524.7 562.5 524 L 555 527 Q 556.3 530 552.5 529 Q 550.6 532.6 546 532 Q 547.1 534.7 544.5 534 L 537 537 Q 538.1 539.7 535.5 539 L 529 542 Q 530.3 545 526.5 544 L 520 547 Q 521.3 550 517.5 549 Q 515.6 552.6 511 552 L 509.5 555 L 502 557 L 500.5 560 L 494 562 Q 495.1 564.7 492.5 564 L 485 567 L 483.5 570 L 476 572 L 474.5 575 L 469 577.5 Q 469.8 580.1 466.5 579 L 460 582.5 Q 460.8 585.1 457.5 584 L 454 586 Q 455.5 590.5 451 589 L 451 415 Z M 492 487 L 492 515 L 496 514 Q 498 515 497 512 L 505 509 Q 507 510 506 508 L 513 504 Q 516 505 515 503 Q 518 501 514 499 Q 510 500 511 497 Q 507 497 505 494 Q 501 495 502 492 L 496 489 Q 493 490 494 487 L 492 487 Z " />
    <path fill="currentColor" stroke="currentColor" stroke-width="1" opacity="1"
        d="M 192.5 530 L 413.5 530 L 414 530.5 L 414 571 L 251.5 571 L 251 574.5 L 252 580 Q 255.3 578.7 254 583.5 L 256 586.5 L 257 594 Q 260 592.8 259 596.5 L 262 602.5 L 262 606 Q 265 604.8 264 608.5 L 267 616 Q 270 614.8 269 618.5 L 272 626 L 275 627.5 L 277 634 Q 279.7 632.9 279 635.5 Q 282.2 637.5 282 642 Q 284.7 640.9 284 643.5 L 287 649 Q 289.7 647.9 289 650.5 L 292 656 L 295 657.5 L 297 662 Q 299.7 660.9 299 663.5 L 302 669 L 307 672.5 Q 306.3 674.8 308.5 674 Q 312.8 675.3 312 680 L 316 682.5 L 317.5 685 L 322 687 Q 320.9 689.7 323.5 689 L 327 694 L 332 697.5 Q 331.2 700.1 334.5 699 Q 335.8 702.7 340 702 L 342.5 706 L 346 707 L 347.5 710 L 352 712.5 Q 351.2 715.1 354.5 714 Q 355.7 717.8 360 717 Q 358.9 719.7 361.5 719 L 367 722.5 Q 366.2 725.1 369.5 724 L 376 727 Q 374.8 730 378.5 729 L 386 732 Q 384.8 735 388.5 734 L 397 737 Q 395.8 740 399.5 739 L 402.5 741 L 410 742 Q 408.7 745.3 413.5 744 L 416.5 746 L 425 747 Q 423.6 750.7 429.5 749 L 437 751 L 437 687 L 397 687 L 397 646 L 479 646 L 479 807 L 457.5 806 L 449.5 804 L 442 804 Q 443.4 800 436.5 802 L 421 799 Q 422.4 795.3 416.5 797 L 405 794 Q 406.3 790.7 401.5 792 L 391 789 Q 392.3 785.7 387.5 787 L 379 784 Q 380.3 780.7 375.5 782 L 367 779 Q 368.1 776.3 365.5 777 L 357 774 Q 358.1 771.3 355.5 772 L 347 769 L 345.5 766 L 340 763.5 Q 340.8 760.9 337.5 762 L 333.5 759 L 331 759 L 329.5 756 L 324 753.5 Q 324.8 750.9 321.5 752 Q 320.3 748.2 316 749 L 313.5 745 L 310 743.5 L 308.5 741 L 304 738.5 Q 304.8 736.3 302.5 737 Q 301.3 733.2 297 734 L 293.5 729 Q 291.3 729.8 292 727.5 L 287 724 L 283.5 719 Q 281.3 719.8 282 717.5 L 277 714 L 273.5 709 Q 271.3 709.8 272 707.5 L 267 704 L 264 697 L 260 694.5 L 258.5 691 L 255 688.5 L 253.5 685 L 251 683.5 Q 251.5 679.5 248.5 679 Q 245.9 679.8 247 676.5 Q 243.8 674.5 244 670 L 241 668.5 L 239 662 Q 236.3 663.1 237 660.5 L 233.5 655 Q 230.9 655.8 232 652.5 L 229 645 Q 226 646.3 227 642.5 L 224 635 Q 221 636.3 222 632.5 L 219 625 Q 215.7 626.3 217 621.5 L 215 618.5 L 214 612 Q 211 613.3 212 609.5 L 209 599 Q 205.7 600.3 207 595.5 L 204 584 Q 200.3 585.4 202 579.5 L 199 564 Q 195.5 565.1 197 557.5 L 194 541.5 L 194 531 L 192.5 530 Z " />
    <path fill="currentColor" stroke="currentColor" stroke-width="1" opacity="0"
        d="M 0 0 L 1000 0 L 1000 1000 L 0 1000 L 0 0 Z M 482 104 L 481 105 L 452 106 L 451 107 L 443 107 L 442 109 L 428 110 L 421 112 Q 414 110 415 114 L 400 117 Q 394 115 395 119 L 382 122 Q 376 120 377 124 L 367 127 Q 363 126 364 129 L 354 132 Q 350 131 351 134 L 348 134 L 342 137 Q 338 136 339 139 L 331 142 Q 328 141 329 144 L 321 147 Q 318 146 319 149 L 311 152 Q 308 151 309 154 L 302 157 Q 299 156 300 159 L 298 159 L 294 162 Q 290 161 291 164 L 286 167 Q 283 166 284 169 L 278 171 L 276 174 L 271 177 Q 268 176 269 179 L 264 182 Q 261 181 262 184 L 258 186 L 256 189 L 251 192 L 248 194 L 244 199 L 237 202 L 234 207 Q 231 206 232 209 L 228 211 L 226 214 L 223 216 L 221 219 L 218 221 L 216 224 L 212 226 Q 213 231 209 232 Q 206 231 207 234 L 202 237 L 199 242 L 199 244 L 194 248 Q 195 250 193 249 L 190 254 L 187 255 L 184 261 Q 185 263 182 262 L 179 268 Q 180 270 177 269 L 175 275 L 173 276 L 169 282 Q 170 285 168 284 L 165 290 L 162 291 Q 163 296 159 298 Q 160 301 157 300 L 154 307 Q 155 310 152 309 L 149 317 Q 150 320 147 319 L 144 327 Q 145 330 142 329 L 139 337 Q 140 340 137 339 L 134 348 Q 135 352 132 351 L 129 361 Q 130 365 127 364 L 124 376 Q 125 380 122 379 L 119 391 Q 121 396 117 395 L 114 411 Q 116 416 112 415 L 110 434 L 109 435 L 109 442 L 107 442 L 106 462 L 105 463 L 105 482 L 104 483 L 104 517 L 105 518 L 106 549 L 107 550 L 107 559 L 109 559 L 111 579 L 112 580 Q 110 586 114 585 L 117 601 Q 115 606 119 605 Q 119 613 122 618 Q 121 622 124 621 Q 123 628 127 633 Q 126 637 129 636 L 132 647 Q 131 650 134 649 L 137 658 Q 136 661 139 660 L 139 664 L 142 670 Q 141 672 144 671 L 147 680 Q 146 682 149 681 L 152 690 Q 151 692 154 691 Q 153 696 157 698 Q 156 701 159 700 L 162 707 Q 161 710 164 709 L 166 715 L 169 716 Q 168 721 172 723 Q 171 725 174 724 L 176 730 L 179 731 L 180 735 L 184 737 Q 183 741 187 743 Q 186 746 189 745 L 191 749 L 194 750 L 195 754 L 199 756 L 203 762 Q 205 761 204 764 L 209 767 L 212 773 Q 211 775 214 774 L 217 779 L 222 783 Q 221 785 224 784 L 227 789 L 230 789 L 234 792 L 238 797 Q 241 796 240 799 L 244 801 L 245 804 Q 246 807 250 806 L 251 809 L 256 812 Q 258 811 257 814 L 263 817 Q 265 816 264 819 L 269 821 L 270 824 L 276 826 L 277 829 L 284 831 L 285 834 L 292 837 Q 295 836 294 839 L 301 842 Q 303 841 302 844 L 310 847 Q 312 846 311 849 L 320 852 Q 322 851 321 854 L 330 857 Q 332 856 331 859 L 341 862 Q 343 861 342 864 L 352 867 Q 355 866 354 869 L 365 872 Q 368 871 367 874 L 380 877 Q 383 876 382 879 L 396 882 Q 401 880 400 884 L 416 887 Q 422 885 421 889 L 442 891 L 443 892 L 451 892 L 451 894 L 462 894 L 463 895 L 482 895 L 483 896 L 517 896 L 518 895 L 537 895 L 538 894 L 549 894 L 549 892 L 566 891 L 573 889 Q 580 890 579 887 L 585 887 L 596 884 Q 601 886 600 882 L 610 881 L 615 879 Q 618 880 617 877 L 631 874 Q 633 875 632 872 L 640 871 L 643 869 Q 647 870 646 867 L 656 864 Q 660 865 659 862 L 667 859 Q 670 860 669 857 L 677 854 Q 680 855 679 852 L 687 849 Q 690 850 689 847 L 696 845 L 697 842 L 705 839 Q 707 840 706 837 Q 711 838 713 834 Q 716 835 715 833 L 721 829 Q 723 830 722 827 L 728 824 Q 730 825 729 822 L 735 820 L 736 818 L 740 816 L 742 812 Q 746 813 748 809 Q 750 810 749 807 L 754 805 L 755 803 L 759 801 L 761 798 L 764 796 L 766 793 L 771 789 Q 773 790 772 787 L 777 784 Q 776 781 779 782 L 782 777 L 787 774 Q 786 771 789 772 L 791 768 L 794 766 L 796 763 L 799 761 L 800 758 L 804 755 L 806 751 L 809 749 L 812 744 Q 811 741 814 742 L 816 738 L 819 736 L 822 731 Q 821 728 824 729 L 827 724 Q 826 720 829 721 L 832 716 Q 831 713 834 714 L 836 708 L 839 706 L 842 700 Q 841 696 844 697 L 847 691 Q 846 688 849 689 L 852 681 Q 851 678 854 679 L 857 671 Q 856 668 859 669 L 862 661 Q 861 656 864 657 L 867 649 Q 866 645 869 646 L 872 636 Q 871 631 874 632 L 877 622 Q 875 616 879 617 L 882 605 Q 880 599 884 600 L 887 585 Q 885 578 889 579 L 889 573 L 891 566 L 891 558 L 892 557 L 892 550 L 894 549 L 894 538 L 895 537 L 895 518 L 896 517 L 896 483 L 895 482 L 895 463 L 894 462 L 894 452 L 892 451 L 892 443 L 889 427 Q 891 420 887 421 L 887 416 L 884 405 Q 886 399 882 400 L 879 386 Q 880 381 877 382 L 874 371 Q 875 366 872 367 L 869 357 Q 870 353 867 354 L 866 348 L 864 345 Q 865 341 862 342 L 859 334 Q 860 330 857 331 L 854 324 Q 855 320 852 321 L 849 314 Q 850 310 847 311 L 844 305 Q 845 301 842 302 L 839 296 Q 840 293 837 294 L 834 289 Q 835 285 832 286 L 830 281 L 827 279 L 825 273 L 823 271 L 819 266 Q 820 263 817 264 L 814 259 Q 815 256 813 257 Q 810 256 810 253 L 808 251 L 806 248 L 803 245 L 799 241 Q 800 238 797 239 L 794 234 Q 791 235 792 233 L 787 229 L 784 222 L 779 219 Q 780 216 778 217 L 774 212 Q 770 213 769 209 Q 766 210 767 208 L 762 204 L 759 199 Q 755 200 756 198 L 753 195 L 751 192 L 746 190 L 744 187 L 739 184 Q 736 185 737 183 L 733 180 L 731 177 L 726 175 L 724 172 L 718 170 L 716 167 L 710 164 Q 706 165 707 163 L 702 159 Q 699 160 700 157 Q 695 158 694 154 Q 690 155 691 152 L 684 149 Q 680 150 681 147 L 674 144 Q 670 145 671 142 L 664 139 Q 660 140 661 137 L 658 137 L 652 134 Q 648 135 649 132 L 643 131 L 640 129 Q 635 130 636 127 L 625 124 Q 620 125 621 122 L 609 119 Q 604 120 605 117 L 590 114 Q 584 116 585 112 L 566 110 L 565 109 L 558 109 L 557 107 L 538 106 L 537 105 L 518 105 L 517 104 L 482 104 Z " />
    <path fill="currentColor" stroke="currentColor" stroke-width="1" opacity="0"
        d="M 489.5 156 L 530 157 L 530.5 159 L 540.5 159 L 541.5 160 L 550.5 160 L 551.5 161 L 565 162 Q 563.9 165.5 571.5 164 L 587 167 Q 585.6 170.7 591.5 169 L 600.5 172 L 605 172 Q 603.7 175.3 608.5 174 L 619 177 Q 617.8 180 621.5 179 L 632 182 Q 630.8 185 634.5 184 L 644 187 Q 642.9 189.7 645.5 189 L 654 192 Q 652.9 194.7 655.5 194 L 664 197 Q 662.9 199.7 665.5 199 Q 667.5 202.2 672 202 Q 670.9 204.7 673.5 204 L 680 207.5 Q 679.3 209.8 681.5 209 L 689 212 L 691.5 216 L 696 217 L 697.5 220 L 702 222.5 Q 701.2 225.1 704.5 224 L 709 227 Q 707.9 229.7 710.5 229 L 716 232 L 717.5 235 L 722 237 Q 720.9 239.7 723.5 239 L 727 244 L 731.5 247 L 734 247 L 737.5 252 Q 739.8 251.3 739 253.5 L 744 257 L 747.5 262 Q 749.8 261.3 749 263.5 Q 752.7 264.8 752 269 L 757 272.5 Q 756.3 274.8 758.5 274 L 762.5 280 L 766 282.5 L 767 286 L 770 287.5 L 772.5 292 Q 774.8 291.3 774 293.5 L 777 299 Q 779.7 297.9 779 300.5 L 782.5 306 Q 785.1 305.2 784 308.5 Q 787.7 309.8 787 314 L 790 315.5 L 792.5 321 Q 795.1 320.2 794 323.5 L 797 327.5 L 797 330 Q 799.7 328.9 799 331.5 L 802 339 Q 804.7 337.9 804 340.5 L 807 349 Q 809.7 347.9 809 350.5 L 812 359 Q 814.7 357.9 814 360.5 L 817 371 Q 820 369.8 819 373.5 L 822 384 Q 825 382.8 824 386.5 L 827 395.5 L 827 400 Q 829.7 398.9 829 401.5 L 832 416 Q 836 414.6 834 421.5 L 836 427.5 L 837 441 L 839 441.5 L 839 448.5 L 840 449.5 L 841 469.5 L 842 470.5 L 842 489 L 844 489.5 L 844 511 L 842 511.5 L 842 529.5 L 841 530.5 L 841 540.5 L 840 541.5 L 839 559 Q 835.5 557.9 837 565.5 L 834 582 Q 830.3 580.6 832 586.5 L 829 601 Q 825.7 599.7 827 604.5 L 824 616 Q 820.7 614.7 822 619.5 L 820 622.5 L 819 629 Q 816 627.8 817 631.5 L 814 637.5 L 814 641 Q 811 639.8 812 643.5 L 809 651 Q 806 649.8 807 653.5 L 804 661 Q 801 659.8 802 663.5 L 799 667.5 L 799 670 Q 796.3 668.9 797 671.5 L 794 679 L 791 680.5 L 789 686 Q 786 684.8 787 688.5 L 784 694 L 781 695.5 L 779 701 L 776 702.5 L 773.5 707 Q 771.3 706.3 772 708.5 L 769 714 L 766 715.5 L 763.5 720 L 760 722.5 L 758.5 726 L 756 727.5 L 753.5 731 L 751 732.5 Q 751.5 736.5 748.5 737 Q 746.3 736.3 747 738.5 L 742 742 L 738.5 747 Q 736.3 746.3 737 748.5 L 731 752.5 L 728.5 756 L 726 757.5 L 723.5 761 L 720 762 L 718.5 765 L 714 767 Q 715.1 769.7 712.5 769 L 707 772 L 704.5 776 L 701 777.5 Q 701.8 779.8 699.5 779 L 694 782 Q 695.1 784.7 692.5 784 L 688.5 787 L 686 787 L 684.5 790 L 679 792 Q 680.3 795 676.5 794 L 670 797 Q 671.3 800 667.5 799 Q 665.6 802.6 661 802 Q 662.1 804.7 659.5 804 L 651 807 Q 652.1 809.7 649.5 809 L 641 812 Q 642.3 815.3 637.5 814 L 629 817 Q 630.3 820 626.5 819 L 615 822 Q 616.3 825 612.5 824 L 601 827 Q 602.4 830.7 596.5 829 L 591.5 831 L 582 832 Q 583.4 835.7 577.5 834 L 571.5 836 L 559 837 L 558.5 839 L 551.5 839 L 550.5 840 L 530.5 841 L 529.5 842 L 511 842 L 510.5 844 L 489 844 L 488.5 842 L 470.5 842 L 469.5 841 L 457.5 841 L 456.5 840 L 441 839 Q 442.1 835.5 434.5 837 L 428.5 835 L 417 834 Q 418.4 830.3 412.5 832 L 403.5 829 L 399 829 Q 400.3 825.7 395.5 827 L 384 824 Q 385.3 821 381.5 822 L 371 819 Q 372.3 815.7 367.5 817 L 359 814 Q 360.3 811 356.5 812 L 349 809 Q 350.3 805.7 345.5 807 L 339 804 Q 340.3 801 336.5 802 L 330 799 Q 331.3 796 327.5 797 L 321 793.5 L 319.5 791 L 314 788.5 Q 314.8 785.9 311.5 787 L 305 784 L 303.5 781 L 299 779 Q 300.1 776.3 297.5 777 L 292 774 L 290.5 771 L 286 768.5 Q 286.8 766.3 284.5 767 L 280 763.5 L 278.5 761 L 274 759 Q 275.1 756.3 272.5 757 L 269 752 L 262 749 L 258.5 744 Q 256.3 744.8 257 742.5 L 252 739 L 249 734.5 L 249 732 L 244 728.5 Q 244.8 726.3 242.5 727 Q 238.2 725.7 239 721 L 235 718.5 L 233.5 716 Q 231.3 716.8 232 714.5 L 228.5 710 Q 225.9 710.8 227 707.5 Q 223.3 706.2 224 702 L 221 700.5 L 218.5 696 L 216 694.5 L 214 689 Q 211 690.3 212 686.5 L 208.5 681 Q 206.3 681.8 207 679.5 L 204 672 Q 201.3 673.1 202 670.5 Q 198.8 668.5 199 664 Q 196 665.3 197 661.5 L 193.5 655 Q 190.5 655.9 192 651.5 L 189 644 Q 186 645.3 187 641.5 L 184 632 Q 181 633.3 182 629.5 L 179 619 Q 176 620.3 177 616.5 L 174 605 Q 170.7 606.3 172 601.5 L 169 587 Q 165.3 588.4 167 582.5 L 165 576.5 L 164 566 Q 160.5 567.1 162 559.5 L 161 558.5 L 160 542.5 L 159 541.5 L 159 530 L 157 529.5 L 157 511.5 L 156 510.5 L 156 489.5 L 157 488.5 L 157 470 L 159 469.5 L 159 459.5 L 160 458.5 L 160 449.5 L 161 448.5 L 162 435 L 164 434.5 L 164 427.5 L 167 412 Q 170.7 413.4 169 407.5 L 171 403.5 L 172 395 Q 175.3 396.3 174 391.5 L 177 381 Q 180.3 382.3 179 377.5 L 182 367 Q 184.7 368.1 184 365.5 L 187 356 Q 189.7 357.1 189 354.5 L 192 346 Q 195.3 347.3 194 342.5 Q 197.6 340.6 197 336 Q 199.7 337.1 199 334.5 L 202 327 Q 204.7 328.1 204 325.5 Q 207.2 323.5 207 319 Q 209.7 320.1 209 317.5 Q 212.6 315.6 212 311 L 215 309.5 L 217 304 Q 219.7 305.1 219 302.5 L 222 297 Q 224.7 298.1 224 295.5 L 227 290 L 230 288.5 L 232 284 Q 234.7 285.1 234 282.5 Q 237.7 281.3 237 277 L 242 273.5 Q 241.3 271.3 243.5 272 L 247 267 Q 249.7 268.1 249 265.5 L 252.5 261 L 256 258.5 L 257.5 256 L 261 253.5 L 262.5 251 L 267 249 Q 265.9 246.3 268.5 247 L 272 242 L 279 239 L 282.5 234 Q 285.8 235.1 285 232.5 L 291 228.5 L 292.5 226 L 297 223.5 Q 296.3 221.3 298.5 222 L 304 219 Q 302.9 216.3 305.5 217 L 311 213.5 Q 310.2 210.9 313.5 212 Q 315.4 208.4 320 209 L 321.5 206 L 327 203.5 Q 326.2 200.9 329.5 202 L 336 199 Q 334.8 196 338.5 197 L 346 194 Q 344.8 191 348.5 192 L 356 189 Q 354.8 186 358.5 187 L 367 184 Q 365.7 180.7 370.5 182 L 380 179 Q 378.7 175.7 383.5 177 Q 388 173.8 395 174 Q 393.7 170.7 398.5 172 L 407.5 169 L 412 169 Q 410.6 165.3 416.5 167 L 422.5 165 L 434 164 Q 432.9 160.5 440.5 162 L 449.5 160 L 470 159 L 470.5 157 L 488.5 157 L 489.5 156 Z M 469 192 L 469 194 L 458 194 L 442 197 Q 435 195 436 199 L 421 202 Q 416 201 417 204 L 413 204 L 405 207 Q 400 206 401 209 L 391 212 Q 386 211 387 214 L 379 217 Q 375 216 376 219 L 373 219 L 367 222 Q 364 221 365 224 L 357 227 Q 354 226 355 229 L 348 231 L 346 234 Q 342 234 340 237 Q 336 236 337 239 L 331 242 Q 328 241 329 244 L 324 247 Q 320 246 321 249 Q 320 251 317 251 L 315 254 L 312 255 L 309 259 Q 305 258 304 262 Q 301 261 302 264 L 298 266 L 296 269 L 293 271 L 291 274 L 287 277 Q 284 276 285 279 L 283 280 L 279 285 Q 280 287 278 286 L 276 289 L 273 291 L 271 294 L 268 296 L 266 300 L 262 302 L 259 308 Q 260 310 258 309 Q 255 309 255 314 L 253 315 L 251 319 L 247 321 Q 248 326 244 328 Q 245 330 242 329 Q 242 334 239 336 Q 240 338 237 337 L 234 345 Q 235 347 232 346 Q 233 351 229 353 Q 230 356 227 355 L 224 363 Q 225 366 222 365 L 219 373 Q 220 376 217 375 L 214 386 Q 215 388 212 387 L 209 398 Q 210 402 207 401 Q 207 408 204 413 Q 205 417 202 416 L 199 432 Q 201 437 197 436 L 196 450 L 195 451 L 195 459 L 194 460 L 194 469 L 192 470 L 192 481 L 414 481 L 414 481 L 414 440 L 247 440 L 249 439 L 252 425 Q 250 419 254 420 L 257 410 Q 256 405 259 406 L 262 396 Q 261 393 264 394 L 267 386 Q 266 383 269 384 L 271 377 L 274 375 L 276 368 L 279 366 Q 279 362 282 360 Q 281 356 284 357 Q 287 357 286 353 L 289 351 L 292 346 Q 291 343 294 344 L 297 339 Q 296 336 299 337 Q 301 337 301 333 L 304 331 L 306 328 L 309 326 L 312 322 Q 311 319 314 320 L 315 318 L 319 315 L 320 313 L 324 311 L 326 308 L 331 304 Q 330 301 334 302 L 337 297 L 343 294 Q 345 295 344 293 L 350 289 Q 352 290 351 288 L 357 284 Q 360 285 359 283 L 365 279 Q 367 280 366 278 L 373 274 Q 375 275 374 272 L 382 269 Q 385 270 384 267 L 392 264 Q 395 265 394 262 L 405 259 Q 407 260 406 257 L 414 256 L 417 254 Q 422 256 421 252 L 435 249 Q 440 251 439 247 L 458 244 L 466 244 L 466 242 L 477 242 L 479 241 L 479 193 L 479 192 L 469 192 Z M 521 192 L 521 241 L 523 242 L 534 242 L 534 244 L 549 245 L 556 247 Q 562 245 561 249 L 576 252 Q 580 251 579 254 L 584 254 L 591 257 Q 595 256 594 259 L 603 262 Q 607 261 606 264 L 615 267 Q 617 266 616 269 L 625 272 Q 627 271 626 274 L 633 277 Q 635 276 634 279 L 640 281 L 641 284 Q 646 283 648 287 Q 650 286 649 289 L 655 291 L 656 294 L 661 296 L 662 299 L 667 302 L 669 302 L 673 307 Q 675 306 674 309 Q 675 312 679 311 L 680 314 L 684 316 L 687 321 Q 686 323 689 322 L 693 327 Q 695 326 694 329 L 699 332 Q 698 336 702 338 Q 701 340 704 339 L 707 345 Q 706 347 709 346 L 711 351 L 714 352 Q 713 356 717 358 Q 716 361 719 360 L 721 366 L 724 367 L 726 375 L 729 376 L 732 385 Q 731 387 734 386 L 737 395 Q 736 397 739 396 L 742 407 Q 741 411 744 410 L 747 421 Q 745 426 749 425 L 752 440 Q 750 446 754 445 L 756 458 L 756 466 L 757 467 L 757 477 L 759 477 L 759 481 L 625 481 L 625 530 L 757 530 L 755 549 L 754 550 Q 756 556 752 555 L 751 566 L 749 571 Q 751 576 747 575 L 746 584 L 744 587 Q 745 591 742 590 L 739 601 Q 740 603 737 602 Q 738 608 734 612 Q 735 615 732 614 L 729 622 Q 730 625 727 624 L 724 631 Q 725 633 722 632 L 719 638 Q 720 641 717 640 L 714 646 Q 715 648 712 647 L 709 653 Q 710 655 707 654 L 705 659 L 702 660 L 699 666 Q 700 668 697 667 L 694 672 Q 691 671 692 674 L 687 677 L 687 680 L 684 684 L 680 687 Q 676 686 677 689 L 672 692 L 669 697 Q 666 696 667 699 L 662 702 Q 659 701 660 704 L 656 707 Q 653 706 654 709 L 649 712 Q 646 711 647 714 L 642 717 Q 639 716 640 719 Q 635 718 634 722 Q 631 721 632 724 L 626 727 Q 623 726 624 729 L 616 732 Q 613 731 614 734 L 606 737 Q 601 736 602 739 L 594 742 Q 589 741 590 744 L 579 747 Q 574 746 575 749 L 560 752 Q 554 750 555 754 L 535 756 L 534 757 L 522 757 L 521 760 L 521 807 L 542 806 L 551 804 Q 558 806 557 802 L 564 802 L 575 799 Q 580 801 579 797 L 584 797 L 592 794 Q 596 795 595 792 L 607 789 Q 610 790 609 787 L 620 784 Q 622 785 621 782 L 625 782 L 631 779 Q 633 780 632 777 L 641 774 Q 643 775 642 772 L 651 769 Q 653 770 652 767 L 659 765 L 660 762 L 667 759 Q 670 760 669 758 L 675 755 L 676 752 Q 680 753 682 749 Q 685 750 684 748 Q 685 744 689 745 L 690 743 Q 691 740 695 740 L 696 738 L 701 734 L 704 732 L 707 727 L 712 724 Q 711 721 714 722 L 717 717 L 722 714 Q 721 711 724 712 L 727 707 L 732 704 Q 731 701 734 702 L 736 698 L 739 696 L 740 693 L 744 690 L 745 687 L 749 684 Q 748 680 752 679 Q 751 675 754 676 L 756 671 L 759 669 L 762 662 Q 761 659 764 660 L 767 655 Q 766 651 769 652 L 772 645 Q 771 641 774 642 L 777 635 Q 776 631 779 632 L 782 625 Q 781 620 784 621 L 787 612 Q 786 608 789 609 L 792 599 Q 791 594 794 595 L 797 584 Q 795 578 799 579 L 802 564 Q 801 556 804 557 L 805 543 L 806 542 L 806 532 L 807 531 L 807 510 L 809 509 L 809 493 L 807 492 L 807 470 L 806 469 L 805 451 L 804 450 L 804 443 L 802 442 L 799 425 Q 800 420 797 421 Q 797 413 794 409 Q 795 404 792 405 L 789 394 Q 790 389 787 390 L 784 381 Q 785 378 782 379 Q 783 373 779 370 Q 780 366 777 367 L 774 360 Q 775 356 772 357 L 770 351 L 767 349 L 764 341 Q 765 338 762 339 L 759 334 Q 760 330 757 331 L 755 326 L 752 324 Q 753 320 749 319 Q 750 315 748 316 Q 744 316 745 312 L 743 310 L 740 306 L 737 304 L 734 300 Q 735 296 733 297 L 729 292 L 724 289 Q 725 286 723 287 L 720 283 L 718 281 L 715 277 Q 710 278 709 274 Q 710 271 708 272 L 704 267 L 697 264 L 694 259 Q 690 260 691 258 Q 691 255 687 255 L 685 253 L 682 251 L 679 247 L 673 245 L 671 242 Q 666 242 665 239 Q 661 240 662 237 L 656 234 Q 653 235 654 232 L 647 229 Q 644 230 645 227 L 637 224 Q 634 225 635 222 L 627 219 Q 623 220 624 217 L 616 214 Q 611 215 612 212 L 602 209 Q 598 210 599 207 L 587 204 Q 581 206 582 202 L 569 199 Q 563 201 564 197 L 543 195 L 542 194 L 532 194 L 531 192 L 521 192 Z M 451 415 L 451 589 Q 456 591 454 586 L 458 584 Q 461 585 460 583 L 467 579 Q 470 580 469 578 L 475 575 L 476 572 L 484 570 L 485 567 L 493 564 Q 495 565 494 562 L 501 560 L 502 557 L 510 555 L 511 552 Q 516 553 518 549 Q 521 550 520 547 L 527 544 Q 530 545 529 542 L 536 539 Q 538 540 537 537 L 545 534 Q 547 535 546 532 Q 551 533 553 529 Q 556 530 555 527 L 563 524 Q 565 525 564 522 L 571 519 Q 573 520 572 517 L 580 514 Q 582 515 581 513 L 588 509 Q 591 510 590 508 L 597 504 Q 601 505 599 500 L 596 499 Q 593 500 594 497 L 587 494 Q 584 495 585 493 L 579 489 Q 576 490 577 487 L 571 485 L 569 482 L 562 479 Q 559 480 560 477 Q 555 478 554 474 Q 550 475 551 472 L 545 469 Q 541 470 542 467 L 536 464 Q 533 465 534 462 L 528 460 L 526 457 L 519 454 Q 516 455 517 452 L 511 450 L 509 447 L 502 445 L 500 442 Q 495 443 494 439 Q 490 440 491 437 L 485 434 Q 481 435 482 433 L 476 429 Q 473 430 474 427 L 468 425 L 466 422 Q 462 422 460 419 Q 456 420 457 417 L 451 415 Z M 193 530 L 194 531 L 194 542 L 197 558 Q 195 565 199 564 L 202 580 Q 200 585 204 584 L 207 596 Q 206 600 209 599 L 212 610 Q 211 613 214 612 L 215 619 L 217 622 Q 216 626 219 625 L 222 633 Q 221 636 224 635 L 227 643 Q 226 646 229 645 L 232 653 Q 231 656 234 655 L 237 661 Q 236 663 239 662 L 241 669 L 244 670 Q 244 675 247 677 Q 246 680 249 679 Q 251 679 251 684 L 254 685 L 255 689 L 259 691 L 260 695 L 264 697 L 267 704 L 272 708 Q 271 710 274 709 L 277 714 L 282 718 Q 281 720 284 719 L 287 724 L 292 728 Q 291 730 294 729 L 297 734 Q 301 733 303 737 Q 305 736 304 739 L 309 741 L 310 744 L 314 745 L 316 749 Q 320 748 322 752 Q 325 751 324 754 L 330 756 L 331 759 L 334 759 L 338 762 Q 341 761 340 764 L 346 766 L 347 769 L 356 772 Q 358 771 357 774 L 366 777 Q 368 776 367 779 L 376 782 Q 380 781 379 784 L 388 787 Q 392 786 391 789 L 402 792 Q 406 791 405 794 L 417 797 Q 422 795 421 799 L 437 802 Q 443 800 442 804 L 450 804 L 458 806 L 479 807 L 479 646 L 397 646 L 397 687 L 437 687 L 437 751 L 430 749 Q 424 751 425 747 L 417 746 L 414 744 Q 409 745 410 742 L 403 741 L 400 739 Q 396 740 397 737 L 389 734 Q 385 735 386 732 L 379 729 Q 375 730 376 727 L 370 724 Q 366 725 367 723 L 362 719 Q 359 720 360 717 Q 356 718 355 714 Q 351 715 352 713 L 348 710 L 346 707 L 343 706 L 340 702 Q 336 703 335 699 Q 331 700 332 698 L 327 694 L 324 689 Q 321 690 322 687 L 318 685 L 316 683 L 312 680 Q 313 675 309 674 Q 306 675 307 673 L 302 669 L 299 664 Q 300 661 297 662 L 295 658 L 292 656 L 289 651 Q 290 648 287 649 L 284 644 Q 285 641 282 642 Q 282 638 279 636 Q 280 633 277 634 L 275 628 L 272 626 L 269 619 Q 270 615 267 616 L 264 609 Q 265 605 262 606 L 262 603 L 259 597 Q 260 593 257 594 L 256 587 L 254 584 Q 255 579 252 580 L 251 575 L 252 571 L 414 571 L 414 531 L 414 530 L 193 530 Z " />
    <path fill="currentColor" stroke="currentColor" stroke-width="1" opacity="0"
        d="M 492 487 L 494 487 Q 492.9 489.7 495.5 489 L 502 492 Q 500.8 495 504.5 494 Q 506.5 497.2 511 497 Q 509.8 500 513.5 499 Q 517.8 500.7 515 502.5 Q 515.8 505.1 512.5 504 L 506 507.5 Q 506.8 509.8 504.5 509 L 497 512 Q 498.1 514.7 495.5 514 L 492 515 L 492 487 Z " />
</svg>
